<mxfile host="app.diagrams.net" modified="2021-01-14T12:44:30.087Z" agent="5.0 (Windows)" etag="NPioiBcssRZTzKKYxHkn" version="14.2.2" type="github">
  <diagram id="0QVj0R0pMa02MhXi8bS-" name="Page-1">
    <mxGraphModel dx="1038" dy="547" grid="1" gridSize="10" guides="1" tooltips="1" connect="1" arrows="1" fold="1" page="1" pageScale="1" pageWidth="1169" pageHeight="827" math="0" shadow="0">
      <root>
        <mxCell id="0" />
        <mxCell id="1" parent="0" />
        <mxCell id="tACZMejuWW3Y2qO-xWVl-1" value="LEAVE MANAGEMENT PROCESS" style="swimlane;html=1;childLayout=stackLayout;resizeParent=1;resizeParentMax=0;horizontal=1;startSize=20;horizontalStack=0;" vertex="1" parent="1">
          <mxGeometry x="10" y="10" width="760" height="540" as="geometry" />
        </mxCell>
        <mxCell id="tACZMejuWW3Y2qO-xWVl-2" value="Staff" style="swimlane;html=1;startSize=20;horizontal=0;" vertex="1" parent="tACZMejuWW3Y2qO-xWVl-1">
          <mxGeometry y="20" width="760" height="250" as="geometry" />
        </mxCell>
        <mxCell id="tACZMejuWW3Y2qO-xWVl-6" value="Start" style="rounded=1;whiteSpace=wrap;html=1;" vertex="1" parent="tACZMejuWW3Y2qO-xWVl-2">
          <mxGeometry x="290" y="10" width="100" height="50" as="geometry" />
        </mxCell>
        <mxCell id="tACZMejuWW3Y2qO-xWVl-9" value="An Officer logs into the system and files a leave application detailing the type of leave being applied for, proposed date for start of the leave and the number of days proposed for the leave." style="rounded=0;whiteSpace=wrap;html=1;" vertex="1" parent="tACZMejuWW3Y2qO-xWVl-2">
          <mxGeometry x="180" y="130" width="320" height="80" as="geometry" />
        </mxCell>
        <mxCell id="tACZMejuWW3Y2qO-xWVl-8" value="" style="edgeStyle=orthogonalEdgeStyle;rounded=0;orthogonalLoop=1;jettySize=auto;html=1;" edge="1" parent="tACZMejuWW3Y2qO-xWVl-2" source="tACZMejuWW3Y2qO-xWVl-6" target="tACZMejuWW3Y2qO-xWVl-9">
          <mxGeometry relative="1" as="geometry">
            <mxPoint x="340" y="135" as="targetPoint" />
          </mxGeometry>
        </mxCell>
        <mxCell id="tACZMejuWW3Y2qO-xWVl-3" value="Supervisor" style="swimlane;html=1;startSize=20;horizontal=0;" vertex="1" parent="tACZMejuWW3Y2qO-xWVl-1">
          <mxGeometry y="270" width="760" height="270" as="geometry" />
        </mxCell>
        <mxCell id="tACZMejuWW3Y2qO-xWVl-10" value="The Supervisor will receive a notification alerting him/her on a leave application that has been filed by an Officer working under him/her" style="whiteSpace=wrap;html=1;rounded=0;" vertex="1" parent="tACZMejuWW3Y2qO-xWVl-3">
          <mxGeometry x="240" y="30" width="200" height="80" as="geometry" />
        </mxCell>
        <mxCell id="tACZMejuWW3Y2qO-xWVl-12" value="&lt;div&gt;Leave&lt;/div&gt;&lt;div&gt;Approved?&lt;br&gt;&lt;/div&gt;" style="rhombus;whiteSpace=wrap;html=1;rounded=0;" vertex="1" parent="tACZMejuWW3Y2qO-xWVl-3">
          <mxGeometry x="290" y="180" width="100" height="80" as="geometry" />
        </mxCell>
        <mxCell id="tACZMejuWW3Y2qO-xWVl-13" value="" style="edgeStyle=orthogonalEdgeStyle;rounded=0;orthogonalLoop=1;jettySize=auto;html=1;" edge="1" parent="tACZMejuWW3Y2qO-xWVl-3" source="tACZMejuWW3Y2qO-xWVl-10" target="tACZMejuWW3Y2qO-xWVl-12">
          <mxGeometry relative="1" as="geometry" />
        </mxCell>
        <mxCell id="tACZMejuWW3Y2qO-xWVl-11" value="" style="edgeStyle=orthogonalEdgeStyle;rounded=0;orthogonalLoop=1;jettySize=auto;html=1;" edge="1" parent="tACZMejuWW3Y2qO-xWVl-1" source="tACZMejuWW3Y2qO-xWVl-9" target="tACZMejuWW3Y2qO-xWVl-10">
          <mxGeometry relative="1" as="geometry" />
        </mxCell>
        <mxCell id="tACZMejuWW3Y2qO-xWVl-17" value="" style="edgeStyle=orthogonalEdgeStyle;rounded=0;orthogonalLoop=1;jettySize=auto;html=1;entryX=0;entryY=0.5;entryDx=0;entryDy=0;" edge="1" parent="1" source="tACZMejuWW3Y2qO-xWVl-14" target="tACZMejuWW3Y2qO-xWVl-9">
          <mxGeometry relative="1" as="geometry">
            <mxPoint x="170" y="370" as="targetPoint" />
          </mxGeometry>
        </mxCell>
        <mxCell id="tACZMejuWW3Y2qO-xWVl-14" value="Comments" style="shape=document;whiteSpace=wrap;html=1;boundedLbl=1;rounded=0;" vertex="1" parent="1">
          <mxGeometry x="110" y="460" width="120" height="80" as="geometry" />
        </mxCell>
        <mxCell id="tACZMejuWW3Y2qO-xWVl-15" value="" style="edgeStyle=orthogonalEdgeStyle;rounded=0;orthogonalLoop=1;jettySize=auto;html=1;" edge="1" parent="1" source="tACZMejuWW3Y2qO-xWVl-12" target="tACZMejuWW3Y2qO-xWVl-14">
          <mxGeometry relative="1" as="geometry" />
        </mxCell>
      </root>
    </mxGraphModel>
  </diagram>
</mxfile>
